<?xml version="1.0" encoding="utf-8"?>
<!-- Generator: Adobe Illustrator 21.0.0, SVG Export Plug-In . SVG Version: 6.00 Build 0)  -->
<svg version="1.1" id="Слой_1" xmlns="http://www.w3.org/2000/svg" xmlns:xlink="http://www.w3.org/1999/xlink" x="0px" y="0px"
	 viewBox="0 0 413 413" style="enable-background:new 0 0 413 413;" xml:space="preserve">
<style type="text/css">
	.st0{fill:url(#SVGID_1_);}
	.st1{fill:url(#SVGID_2_);}
	.st2{fill:url(#SVGID_3_);}
	.st3{fill:url(#SVGID_4_);}
	.st4{fill:url(#SVGID_5_);}
	.st5{fill:url(#SVGID_6_);}
	.st6{fill:url(#SVGID_7_);}
	.st7{fill:url(#SVGID_8_);}
	.st8{fill:url(#SVGID_9_);}
</style>
<linearGradient id="SVGID_1_" gradientUnits="userSpaceOnUse" x1="66.5" y1="454.29" x2="66.5" y2="-42.067" gradientTransform="matrix(1 0 0 -1 0 414)">
	<stop  offset="0" style="stop-color:#00EFD1"/>
	<stop  offset="1" style="stop-color:#00ACEA"/>
</linearGradient>
<path class="st0" d="M123,160c0-5.5-4.5-10-10-10H20c-5.5,0-10,4.5-10,10v93c0,5.5,4.5,10,10,10h93c5.5,0,10-4.5,10-10V160z
	 M102,242H30v-72h72V242z"/>
<linearGradient id="SVGID_2_" gradientUnits="userSpaceOnUse" x1="276" y1="454.29" x2="276" y2="-42.067" gradientTransform="matrix(1 0 0 -1 0 414)">
	<stop  offset="0" style="stop-color:#00EFD1"/>
	<stop  offset="1" style="stop-color:#00ACEA"/>
</linearGradient>
<path class="st1" d="M392.3,196H159.7c-5.5,0-10,4.5-10,10s4.5,10,10,10h232.7c5.5,0,10-4.5,10-10S397.9,196,392.3,196z"/>
<linearGradient id="SVGID_3_" gradientUnits="userSpaceOnUse" x1="66.5" y1="454.29" x2="66.5" y2="-42.067" gradientTransform="matrix(1 0 0 -1 0 414)">
	<stop  offset="0" style="stop-color:#00EFD1"/>
	<stop  offset="1" style="stop-color:#00ACEA"/>
</linearGradient>
<path class="st2" d="M123,10c0-5.5-4.5-10-10-10H20c-5.5,0-10,4.5-10,10v93c0,5.5,4.5,10,10,10h93c5.5,0,10-4.5,10-10V10z M102,92
	H30V20h72V92z"/>
<linearGradient id="SVGID_4_" gradientUnits="userSpaceOnUse" x1="276" y1="454.29" x2="276" y2="-42.067" gradientTransform="matrix(1 0 0 -1 0 414)">
	<stop  offset="0" style="stop-color:#00EFD1"/>
	<stop  offset="1" style="stop-color:#00ACEA"/>
</linearGradient>
<path class="st3" d="M392.3,46H159.7c-5.5,0-10,4.5-10,10s4.5,10,10,10h232.7c5.5,0,10-4.5,10-10S397.9,46,392.3,46z"/>
<linearGradient id="SVGID_5_" gradientUnits="userSpaceOnUse" x1="66.5" y1="454.29" x2="66.5" y2="-42.067" gradientTransform="matrix(1 0 0 -1 0 414)">
	<stop  offset="0" style="stop-color:#00EFD1"/>
	<stop  offset="1" style="stop-color:#00ACEA"/>
</linearGradient>
<path class="st4" d="M123,310c0-5.5-4.5-10-10-10H20c-5.5,0-10,4.5-10,10v93c0,5.5,4.5,10,10,10h93c5.5,0,10-4.5,10-10V310z
	 M102,392H30v-72h72V392z"/>
<linearGradient id="SVGID_6_" gradientUnits="userSpaceOnUse" x1="276" y1="454.29" x2="276" y2="-42.067" gradientTransform="matrix(1 0 0 -1 0 414)">
	<stop  offset="0" style="stop-color:#00EFD1"/>
	<stop  offset="1" style="stop-color:#00ACEA"/>
</linearGradient>
<path class="st5" d="M392.3,346H159.7c-5.5,0-10,4.5-10,10s4.5,10,10,10h232.7c5.5,0,10-4.5,10-10S397.9,346,392.3,346z"/>
<linearGradient id="SVGID_7_" gradientUnits="userSpaceOnUse" x1="66.543" y1="-20.0345" x2="66.543" y2="372.6689">
	<stop  offset="0" style="stop-color:#00EFD1"/>
	<stop  offset="1" style="stop-color:#00ACEA"/>
</linearGradient>
<rect x="21.8" y="11.8" class="st6" width="89.4" height="89.4"/>
<linearGradient id="SVGID_8_" gradientUnits="userSpaceOnUse" x1="66.543" y1="11.2898" x2="66.543" y2="403.9932">
	<stop  offset="0" style="stop-color:#00EFD1"/>
	<stop  offset="1" style="stop-color:#00ACEA"/>
</linearGradient>
<rect x="21.8" y="161.8" class="st7" width="89.4" height="89.4"/>
<linearGradient id="SVGID_9_" gradientUnits="userSpaceOnUse" x1="66.543" y1="42.6142" x2="66.543" y2="435.3175">
	<stop  offset="0" style="stop-color:#00EFD1"/>
	<stop  offset="1" style="stop-color:#00ACEA"/>
</linearGradient>
<rect x="21.8" y="311.8" class="st8" width="89.4" height="89.4"/>
</svg>
