<svg height="413pt" viewBox="-10 0 413 413" width="413pt" xmlns="http://www.w3.org/2000/svg" xmlns:xlink="http://www.w3.org/1999/xlink">
  <linearGradient id="a"><stop offset="0" stop-color="#00efd1"/><stop offset="1" stop-color="#00acea"/></linearGradient>
  <linearGradient id="b" gradientUnits="userSpaceOnUse" x1="56.5" x2="56.5" xlink:href="#a" y1="-40.29" y2="456.067"/>
  <linearGradient id="c" gradientUnits="userSpaceOnUse" x1="266" x2="266" xlink:href="#a" y1="-40.29" y2="456.067"/>
  <path d="m113 160c0-5.523438-4.476562-10-10-10h-93c-5.523438 0-10 4.476562-10 10v93c0 5.523438 4.476562 10 10 10h93c5.523438 0 10-4.476562 10-10zm-21 82h-72v-72h72zm0 0" fill="url(#b)"/>
  <path d="m382.332031 196h-232.664062c-5.523438 0-10 4.476562-10 10s4.476562 10 10 10h232.664062c5.523438 0 10-4.476562 10-10s-4.476562-10-10-10zm0 0" fill="url(#c)"/>
  <path d="m113 10c0-5.523438-4.476562-10-10-10h-93c-5.523438 0-10 4.476562-10 10v93c0 5.523438 4.476562 10 10 10h93c5.523438 0 10-4.476562 10-10zm-21 82h-72v-72h72zm0 0" fill="url(#b)"/>
  <path d="m382.332031 46h-232.664062c-5.523438 0-10 4.476562-10 10s4.476562 10 10 10h232.664062c5.523438 0 10-4.476562 10-10s-4.476562-10-10-10zm0 0" fill="url(#c)"/>
  <path d="m113 310c0-5.523438-4.476562-10-10-10h-93c-5.523438 0-10 4.476562-10 10v93c0 5.523438 4.476562 10 10 10h93c5.523438 0 10-4.476562 10-10zm-21 82h-72v-72h72zm0 0" fill="url(#b)"/>
  <path d="m382.332031 346h-232.664062c-5.523438 0-10 4.476562-10 10s4.476562 10 10 10h232.664062c5.523438 0 10-4.476562 10-10s-4.476562-10-10-10zm0 0" fill="url(#c)"/>
</svg>
