<svg height="425pt" viewBox="-4 0 425 425.19194" width="425pt" xmlns="http://www.w3.org/2000/svg" xmlns:xlink="http://www.w3.org/1999/xlink"><linearGradient id="a"><stop offset="0" stop-color="#00efd1"/><stop offset="1" stop-color="#00acea"/></linearGradient><linearGradient id="b" gradientUnits="userSpaceOnUse" x1="249.06297" x2="249.06297" xlink:href="#a" y1="-33.529058" y2="458.848942"/><linearGradient id="c" gradientUnits="userSpaceOnUse" x1="94.78897" x2="94.78897" xlink:href="#a" y1="-33.529058" y2="458.848942"/><path d="m413.269531 24.152344c-2.652343-1.878906-6.039062-2.382813-9.125-1.355469l-204.539062 68.851563c-4.105469 1.351562-6.90625 5.15625-6.972657 9.476562v226.78125c-12.992187-10.589844-29.28125-16.296875-46.039062-16.136719-36.480469 0-66.101562 25.441407-66.101562 56.710938s29.59375 56.710937 66.070312 56.710937 66.070312-25.445312 66.070312-56.710937v-260.171875l185-62.117188v138.566406c-12-9.972656-28.410156-16.136718-46.351562-16.136718-36.476562 0-66.253906 25.441406-66.253906 56.707031 0 31.269531 29.824218 56.710937 66.300781 56.710937s66.304687-25.441406 66.304687-56.710937v-193.054687c-.078124-3.246094-1.699218-6.261719-4.363281-8.121094zm-266.5625 381.039062c-25.449219 0-46.152343-16.464844-46.152343-36.707031s20.699218-36.710937 46.152343-36.710937c25.457031 0 46.15625 16.46875 46.15625 36.710937s-20.703125 36.707031-46.15625 36.707031zm204.378907-143.148437c-25.449219 0-46.15625-16.46875-46.15625-36.710938 0-20.242187 20.703124-36.707031 46.15625-36.707031 25.453124 0 46.15625 16.46875 46.15625 36.703125 0 20.238281-20.707032 36.710937-46.15625 36.710937zm0 0" fill="url(#b)"/><path d="m132.632812 234.964844v-205.960938l41.269532 28.464844c2.945312 2.085938 6.78125 2.421875 10.039062.875 3.257813-1.546875 5.429688-4.734375 5.671875-8.332031.242188-3.597657-1.476562-7.046875-4.496093-9.019531l-57.097657-39.234376c-3.007812-2.101562-6.945312-2.335937-10.179687-.605468-3.253906 1.742187-5.261719 5.152344-5.207032 8.839844v184.398437c-12-9.972656-28.367187-16.136719-46.308593-16.136719-36.476563 0-66.2265628 25.441406-66.2265628 56.710938 0 31.269531 29.7890628 56.707031 66.2656248 56.707031 36.480469 0 66.269531-25.4375 66.269531-56.707031zm-66.457031 36.707031c-25.449219 0-46.15625-16.464844-46.15625-36.707031 0-20.242188 20.707031-36.707032 46.15625-36.707032s46.15625 16.464844 46.15625 36.707032c0 20.242187-20.699219 36.707031-46.15625 36.707031zm0 0" fill="url(#c)"/></svg>