<svg height="456pt" viewBox="0 -63 456.51335 456" width="456pt" xmlns="http://www.w3.org/2000/svg" xmlns:xlink="http://www.w3.org/1999/xlink"><linearGradient id="a"><stop offset="0" stop-color="#00efd1"/><stop offset="1" stop-color="#00acea"/></linearGradient><linearGradient id="b" gradientUnits="userSpaceOnUse" x1="348.255282" x2="348.255282" xlink:href="#a" y1="-76.42057" y2="406.77643"/><linearGradient id="c" gradientUnits="userSpaceOnUse" x1="108.255282" x2="108.255282" xlink:href="#a" y1="-76.42057" y2="406.77643"/><path d="m452.6875 157.90625-196.976562-155.5c-2.914063-2.3710938-6.945313-2.820312-10.308594-1.148438-3.390625 1.699219-5.492188 5.207032-5.394532 9v311c-.097656 3.789063 2.003907 7.296876 5.394532 9 1.316406.65625 2.765625 1 4.238281 1 2.230469 0 4.394531-.761718 6.136719-2.152343l196.945312-155.5c2.398438-1.902344 3.796875-4.796875 3.789063-7.855469-.003907-3.0625-1.410157-5.953125-3.820313-7.84375zm-192.683594 142.71875v-269.738281l170.835938 134.871093zm0 0" fill="url(#b)"/><path d="m212.6875 157.90625-196.976562-155.5c-2.914063-2.3710938-6.945313-2.820312-10.308594-1.148438-3.390625 1.695313-5.496094 5.207032-5.39843775 9v311c-.09765625 3.792969 2.00781275 7.300782 5.39843775 9 1.316406.65625 2.765625 1 4.238281 1 2.230469 0 4.394531-.761718 6.136719-2.152343l196.945312-155.5c2.398438-1.902344 3.796875-4.796875 3.789063-7.855469-.003907-3.0625-1.410157-5.953125-3.820313-7.84375zm-192.683594 142.71875v-269.738281l170.835938 134.871093zm0 0" fill="url(#c)"/></svg>