<svg height="331pt" viewBox="-45 0 331 331" width="331pt" xmlns="http://www.w3.org/2000/svg" xmlns:xlink="http://www.w3.org/1999/xlink"><linearGradient id="a"><stop offset="0" stop-color="#00efd1"/><stop offset="1" stop-color="#00acea"/></linearGradient><linearGradient id="b" gradientUnits="userSpaceOnUse" x1="195.5" x2="195.5" xlink:href="#a" y1="-76.177" y2="407.02"/><linearGradient id="c" gradientUnits="userSpaceOnUse" x1="45.5" x2="45.5" xlink:href="#a" y1="-76.177" y2="407.02"/><path d="m241 10c0-5.523438-4.476562-10-10-10h-71c-5.523438 0-10 4.476562-10 10v311c0 5.523438 4.476562 10 10 10h71c5.523438 0 10-4.476562 10-10zm-21 302h-50v-292h50zm0 0" fill="url(#b)"/><path d="m91 10c0-5.523438-4.476562-10-10-10h-71c-5.523438 0-10 4.476562-10 10v311c0 5.523438 4.476562 10 10 10h71c5.523438 0 10-4.476562 10-10zm-21 302h-50v-292h50zm0 0" fill="url(#c)"/></svg>