<svg height="337pt" viewBox="0 0 337 337" width="337pt" xmlns="http://www.w3.org/2000/svg" xmlns:xlink="http://www.w3.org/1999/xlink"><linearGradient id="a"><stop offset="0" stop-color="#00efd1"/><stop offset="1" stop-color="#00acea"/></linearGradient><linearGradient id="b" gradientUnits="userSpaceOnUse" x1="178.242" x2="178.242" xlink:href="#a" y1="-78.121" y2="414.257"/><linearGradient id="c" gradientUnits="userSpaceOnUse" x1="168.5" x2="168.5" xlink:href="#a" y1="-78.121" y2="414.257"/><path d="m247.566406 159.398438-128.941406-76.375c-3.003906-1.832032-6.773438-1.867188-9.8125-.085938-3.0625 1.804688-4.90625 5.128906-4.8125 8.683594v152.757812c-.09375 3.554688 1.75 6.882813 4.8125 8.6875 1.46875.859375 3.136719 1.3125 4.835938 1.3125 1.773437 0 3.515624-.484375 5.035156-1.402344l128.917968-76.375c3.035157-1.808593 4.894532-5.082031 4.886719-8.613281-.003906-3.535156-1.875-6.800781-4.917969-8.597656zm-123.566406 67.433593v-117.664062l99.320312 58.832031zm0 0" fill="url(#b)"/><path d="m337 40c0-22.089844-17.910156-40-40-40h-257c-22.089844 0-40 17.910156-40 40v257c0 22.089844 17.910156 40 40 40h257c22.089844 0 40-17.910156 40-40zm-20 257c0 11.046875-8.953125 20-20 20h-257c-11.046875 0-20-8.953125-20-20v-257c0-11.046875 8.953125-20 20-20h257c11.046875 0 20 8.953125 20 20zm0 0" fill="url(#c)"/></svg>