<svg height="456pt" viewBox="0 -63 456.52646 456" width="456pt" xmlns="http://www.w3.org/2000/svg" xmlns:xlink="http://www.w3.org/1999/xlink"><linearGradient id="a"><stop offset="0" stop-color="#00efd1"/><stop offset="1" stop-color="#00acea"/></linearGradient><linearGradient id="b" gradientUnits="userSpaceOnUse" x1="108.261149" x2="108.261149" xlink:href="#a" y1="-76.41182" y2="406.78518"/><linearGradient id="c" gradientUnits="userSpaceOnUse" x1="348.261149" x2="348.261149" xlink:href="#a" y1="-76.41182" y2="406.78518"/><path d="m211.125 1.265625c-3.40625-1.671875-7.472656-1.2265625-10.433594 1.148437l-196.917968 155.503907c-2.390626 1.90625-3.7812505 4.800781-3.773438 7.859375s1.417969 5.945312 3.820312 7.839844l196.984376 155.5c1.765624 1.390624 3.949218 2.148437 6.199218 2.148437 1.433594 0 2.84375-.34375 4.121094-1 3.390625-1.699219 5.496094-5.203125 5.398438-9v-311c.097656-3.792969-2.003907-7.300781-5.398438-9zm-14.605469 299.367187-170.835937-134.867187 170.835937-134.867187zm0 0" fill="url(#b)"/><path d="m451.125 1.265625c-3.40625-1.671875-7.472656-1.2265625-10.433594 1.148437l-196.917968 155.5c-2.390626 1.90625-3.78125 4.804688-3.773438 7.863282s1.417969 5.945312 3.820312 7.835937l196.984376 155.5c1.765624 1.394531 3.949218 2.152344 6.199218 2.152344 1.433594 0 2.84375-.34375 4.121094-1 3.390625-1.699219 5.496094-5.207031 5.398438-9v-311c.097656-3.792969-2.003907-7.300781-5.398438-9zm-14.605469 299.367187-170.835937-134.867187 170.835937-134.867187zm0 0" fill="url(#c)"/></svg>